# xmcd
#
# Track frame offsets: 
#        150
#        11013
#        23107
#        37818
#        50470
#        64655
#        79647
#        91175
#        103843
#        115525
#        127253
#        138113
#        149918
#        160310
#        171780
#        184353
#        193833
#        215060
#
# Disc length: 3044 seconds
#
# Revision: 0
# Processed by: cddbd v1.5.2PL0 Copyright (c) Steve Scherf et al.
# Submitted via: ExactAudioCopy v0.99pb5
#
DISCID=020be212
DTITLE=Rat Pack  - Sammy Davis - Disc 3  FLAC
DYEAR=1900
DGENRE=
TTITLE0=I Ain't Got Nobody
TTITLE1=Don't Talk to me when ...
TTITLE2=The Way You Loook Tonight
TTITLE3=Hey There
TTITLE4=My Funny Valentine
TTITLE5=Frankie and Johnny
TTITLE6=Laura
TTITLE7=Be Bop the Bequine
TTITLE8=Smile - Darn You Smile
TTITLE9=Gypsy In My Soul
TTITLE10=Azure
TTITLE11=My Lucky Star
TTITLE12=Wagon Wheels
TTITLE13=Yours is my Heart Alone
TTITLE14=Iv'e Got The Blues
TTITLE15=Somethings Gotta Give
TTITLE16=Hang Out My Tears To Dry
TTITLE17=Love Me Or Leave Me
EXTD=
EXTT0=
EXTT1=
EXTT2=
EXTT3=
EXTT4=
EXTT5=
EXTT6=
EXTT7=
EXTT8=
EXTT9=
EXTT10=
EXTT11=
EXTT12=
EXTT13=
EXTT14=
EXTT15=
EXTT16=
EXTT17=
PLAYORDER=
